<svg
  width="24"
  height="24"
  viewBox="0 0 24 24"
  xmlns="http://www.w3.org/2000/svg"
>
  <path
    opacity="0.4"
    d="M21.99 6.02002C22.01 6.26002 21.99 6.51001 21.93 6.76001L18.56 20.29C18.32 21.3 17.42 22 16.38 22H3.23998C1.72998 22 0.66 20.52 1.1 19.07L5.30999 5.53998C5.59999 4.59998 6.47001 3.96002 7.45001 3.96002H19.75C20.71 3.96002 21.49 4.53002 21.82 5.33002C21.92 5.54002 21.97 5.78002 21.99 6.02002Z"
    fill="#4722F5"
  />
  <path
    d="M22.99 19.62C23.09 20.91 22.07 22 20.78 22H16.38C17.42 22 18.32 21.3 18.56 20.29L21.93 6.76001C21.99 6.51001 22.01 6.26002 21.99 6.02002L22 6L22.99 19.62Z"
    fill="#4722F5"
  />
  <path
    d="M17.5 4C17.09 4 16.75 3.66 16.75 3.25V2C16.75 1.59 17.09 1.25 17.5 1.25C17.91 1.25 18.25 1.59 18.25 2V3.25C18.25 3.66 17.91 4 17.5 4Z"
    fill="#4722F5"
  />
  <path
    d="M11.5 4C11.09 4 10.75 3.66 10.75 3.25V2C10.75 1.59 11.09 1.25 11.5 1.25C11.91 1.25 12.25 1.59 12.25 2V3.25C12.25 3.66 11.91 4 11.5 4Z"
    fill="#4722F5"
  />
  <path
    d="M5.5 4C5.09 4 4.75 3.66 4.75 3.25V2C4.75 1.59 5.09 1.25 5.5 1.25C5.91 1.25 6.25 1.59 6.25 2V3.25C6.25 3.66 5.91 4 5.5 4Z"
    fill="#4722F5"
  />
</svg>
