 <svg
                width="26"
                height="26"
                viewBox="0 0 26 26"
                fill="none"
                xmlns="http://www.w3.org/2000/svg"
              >
                <path
                  d="M20.9408 6.15339L14.1483 2.49172C13.4333 2.10172 12.5666 2.10172 11.8516 2.49172L5.05911 6.15339C4.56078 6.42422 4.25745 6.94422 4.25745 7.54005C4.25745 8.12505 4.56078 8.65589 5.05911 8.92672L11.8516 12.5884C12.2091 12.7834 12.6099 12.8809 12.9999 12.8809C13.3899 12.8809 13.7908 12.7834 14.1483 12.5884L20.9408 8.92672C21.4391 8.65589 21.7424 8.13589 21.7424 7.54005C21.7424 6.94422 21.4391 6.42422 20.9408 6.15339Z"
                  class="fill-current"
                />
                <path
                  opacity="0.4"
                  d="M10.7358 13.8559L4.40913 10.6925C3.92163 10.4542 3.35829 10.4759 2.90329 10.7575C2.43746 11.05 2.16663 11.5375 2.16663 12.0792V18.0484C2.16663 19.0775 2.74079 20.0092 3.66163 20.475L9.97746 23.6384C10.1941 23.7467 10.4325 23.8009 10.6708 23.8009C10.9525 23.8009 11.2341 23.725 11.4833 23.5734C11.9491 23.2917 12.22 22.7934 12.22 22.2517V16.2825C12.2308 15.2425 11.6566 14.3109 10.7358 13.8559Z"
                  class="fill-current"
                />
                <path
                  opacity="0.4"
                  d="M23.0967 10.7575C22.6309 10.4759 22.0675 10.4434 21.5909 10.6925L15.275 13.8559C14.3542 14.3217 13.78 15.2425 13.78 16.2825V22.2517C13.78 22.7934 14.0509 23.2917 14.5167 23.5734C14.7659 23.725 15.0475 23.8009 15.3292 23.8009C15.5675 23.8009 15.8059 23.7467 16.0225 23.6384L22.3384 20.475C23.2592 20.0092 23.8334 19.0884 23.8334 18.0484V12.0792C23.8334 11.5375 23.5625 11.05 23.0967 10.7575Z"
                  class="fill-current"
                />
              </svg>