<svg
  width="24"
  height="25"
  viewBox="0 0 24 25"
  fill="none"
  xmlns="http://www.w3.org/2000/svg"
>
  <path
    opacity="0.4"
    d="M20.62 8.95C19.57 4.33 15.54 2.25 12 2.25C12 2.25 12 2.25 11.99 2.25C8.45997 2.25 4.41997 4.32 3.36997 8.94C2.19997 14.1 5.35997 18.47 8.21997 21.22C9.27997 22.24 10.64 22.75 12 22.75C13.36 22.75 14.72 22.24 15.77 21.22C18.63 18.47 21.79 14.11 20.62 8.95Z"
    fill="#4722F5"
  />
  <path
    d="M12 13.96C13.7397 13.96 15.15 12.5497 15.15 10.81C15.15 9.07034 13.7397 7.66003 12 7.66003C10.2603 7.66003 8.84998 9.07034 8.84998 10.81C8.84998 12.5497 10.2603 13.96 12 13.96Z"
    fill="#4722F5"
  />
</svg>
