   <svg
                width="26"
                height="26"
                viewBox="0 0 26 26"
                fill="none"
                xmlns="http://www.w3.org/2000/svg"
              >
                <path
                  opacity="0.4"
                  d="M23.075 11.7433C23.4975 11.7433 23.8333 11.4075 23.8333 10.985V9.97747C23.8333 5.53581 22.4791 4.18164 18.0375 4.18164H7.96246C3.52079 4.18164 2.16663 5.53581 2.16663 9.97747V10.4866C2.16663 10.9091 2.50246 11.245 2.92496 11.245C3.89996 11.245 4.69079 12.0358 4.69079 13.0108C4.69079 13.9858 3.89996 14.7658 2.92496 14.7658C2.50246 14.7658 2.16663 15.1016 2.16663 15.5241V16.0333C2.16663 20.475 3.52079 21.8291 7.96246 21.8291H18.0375C22.4791 21.8291 23.8333 20.475 23.8333 16.0333C23.8333 15.6108 23.4975 15.275 23.075 15.275C22.1 15.275 21.3091 14.4841 21.3091 13.5091C21.3091 12.5341 22.1 11.7433 23.075 11.7433Z"
                  class="fill-current"
                />
                <path
                  d="M16.2501 17.2033C15.6434 17.2033 15.1559 16.7158 15.1559 16.12C15.1559 15.5241 15.6434 15.0366 16.2392 15.0366C16.8351 15.0366 17.3226 15.5241 17.3226 16.12C17.3226 16.7158 16.8567 17.2033 16.2501 17.2033Z"
                  class="fill-current"
                />
                <path
                  d="M9.75005 11.7867C9.14338 11.7867 8.65588 11.2992 8.65588 10.7033C8.65588 10.1075 9.14338 9.62 9.73922 9.62C10.3351 9.62 10.8226 10.1075 10.8226 10.7033C10.8226 11.2992 10.3567 11.7867 9.75005 11.7867Z"
                  class="fill-current"
                />
                <path
                  d="M9.34922 17.7991C9.14339 17.7991 8.93755 17.7233 8.77505 17.5608C8.46089 17.2466 8.46089 16.7266 8.77505 16.4124L16.0659 9.12161C16.3801 8.80744 16.9001 8.80744 17.2142 9.12161C17.5284 9.43578 17.5284 9.95578 17.2142 10.2699L9.92339 17.5608C9.77172 17.7233 9.55505 17.7991 9.34922 17.7991Z"
                  class="fill-current"
                />
              </svg>