<svg
                width="26"
                height="26"
                viewBox="0 0 26 26"
                fill="none"
                xmlns="http://www.w3.org/2000/svg"
              >
                <path
                  opacity="0.4"
                  d="M7.29079 21.3416C8.17913 20.3883 9.53329 20.4641 10.3133 21.5041L11.4075 22.9666C12.285 24.1258 13.7041 24.1258 14.5816 22.9666L15.6758 21.5041C16.4558 20.4641 17.81 20.3883 18.6983 21.3416C20.6266 23.4 22.1975 22.7175 22.1975 19.8358V7.62663C22.2083 3.26079 21.19 2.16663 17.095 2.16663H8.90496C4.80996 2.16663 3.79163 3.26079 3.79163 7.62663V19.825C3.79163 22.7175 5.37329 23.3891 7.29079 21.3416Z"
                  class="fill-current"
                />
                <path
                  d="M17.5825 12.7291H11.6241C11.18 12.7291 10.8116 12.3608 10.8116 11.9166C10.8116 11.4725 11.18 11.1041 11.6241 11.1041H17.5825C18.0266 11.1041 18.395 11.4725 18.395 11.9166C18.395 12.3608 18.0266 12.7291 17.5825 12.7291Z"
                  class="fill-current"
                />
                <path
                  d="M17.5825 8.39587H11.6241C11.18 8.39587 10.8116 8.02754 10.8116 7.58337C10.8116 7.13921 11.18 6.77087 11.6241 6.77087H17.5825C18.0266 6.77087 18.395 7.13921 18.395 7.58337C18.395 8.02754 18.0266 8.39587 17.5825 8.39587Z"
                  class="fill-current"
                />
                <path
                  d="M8.4283 8.66667C7.83247 8.66667 7.34497 8.17917 7.34497 7.58333C7.34497 6.9875 7.83247 6.5 8.4283 6.5C9.02414 6.5 9.51164 6.9875 9.51164 7.58333C9.51164 8.17917 9.02414 8.66667 8.4283 8.66667Z"
                  class="fill-current"
                />
                <path
                  d="M8.4283 13C7.83247 13 7.34497 12.5125 7.34497 11.9167C7.34497 11.3209 7.83247 10.8334 8.4283 10.8334C9.02414 10.8334 9.51164 11.3209 9.51164 11.9167C9.51164 12.5125 9.02414 13 8.4283 13Z"
                  class="fill-current"
                />
              </svg>