<svg
                width="26"
                height="26"
                viewBox="0 0 26 26"
                fill="none"
                xmlns="http://www.w3.org/2000/svg"
              >
                <path
                  opacity="0.4"
                  d="M19.5 20.4316H18.6767C17.81 20.4316 16.9867 20.7675 16.38 21.3741L14.5275 23.205C13.6825 24.0391 12.3067 24.0391 11.4617 23.205L9.60916 21.3741C9.00249 20.7675 8.16833 20.4316 7.3125 20.4316H2.5C4.70167 20.4316 3.25 18.9908 3.25 17.2142V5.39496C3.25 3.61829 4.70167 2.17749 6.5 2.17749H19.5C21.2983 2.17749 22.75 3.61829 22.75 5.39496V17.2142C22.75 18.98 21.2983 20.4316 19.5 20.4316Z"
                  class="fill-current"
                />
                <path
                  d="M11.245 15.7192H8.34167C7.865 15.7192 7.42083 15.4916 7.13917 15.1016C6.86833 14.7333 6.80333 14.2783 6.93333 13.845C7.3125 12.6858 8.24417 12.0575 9.0675 11.4941C9.93417 10.9091 10.4217 10.5408 10.4217 9.9125C10.4217 9.34917 9.96666 8.89417 9.40333 8.89417C8.84 8.89417 8.38501 9.34917 8.38501 9.9125C8.38501 10.3567 8.01668 10.725 7.57251 10.725C7.12834 10.725 6.76001 10.3567 6.76001 9.9125C6.76001 8.46083 7.94083 7.26917 9.40333 7.26917C10.8658 7.26917 12.0467 8.45 12.0467 9.9125C12.0467 11.44 10.8983 12.22 9.97751 12.8483C9.40334 13.2383 8.86166 13.6067 8.59083 14.0942H11.2342C11.6783 14.0942 12.0467 14.4625 12.0467 14.9067C12.0467 15.3508 11.6892 15.7192 11.245 15.7192Z"
                  class="fill-current"
                />
                <path
                  d="M17.3767 15.7192C16.9325 15.7192 16.5642 15.3509 16.5642 14.9067V14.1592H14.4409C14.4409 14.1592 14.4409 14.1592 14.43 14.1592C13.8992 14.1592 13.4117 13.8775 13.1409 13.4225C12.87 12.9567 12.87 12.3825 13.1409 11.9275C13.8775 10.66 14.7334 9.21915 15.5134 7.96249C15.86 7.40999 16.5209 7.16087 17.1384 7.3342C17.7559 7.51837 18.1892 8.08168 18.1784 8.73168V12.545H18.4167C18.8609 12.545 19.2292 12.9134 19.2292 13.3575C19.2292 13.8017 18.8609 14.17 18.4167 14.17H18.1892V14.9175C18.1892 15.3617 17.8317 15.7192 17.3767 15.7192ZM16.5642 9.36003C15.925 10.4 15.2642 11.5159 14.6684 12.5342H16.5642V9.36003Z"
                  class="fill-current"
                />
              </svg>